<?xml version="1.0" encoding="utf-8"?>
<!-- Generator: Adobe Illustrator 27.8.0, SVG Export Plug-In . SVG Version: 6.00 Build 0)  -->
<svg version="1.1" id="Layer_1" xmlns="http://www.w3.org/2000/svg" xmlns:xlink="http://www.w3.org/1999/xlink" x="0px" y="0px"
	 viewBox="0 0 1280 272" style="enable-background:new 0 0 1280 272;" xml:space="preserve">
<style type="text/css">
	.st0{stroke:#000000;stroke-width:0.5;stroke-miterlimit:10;}
	.st1{fill:#FFFFFF;}
	.st2{fill:#FFFFFF;stroke:#FFFFFF;stroke-width:0.5;stroke-miterlimit:10;}
</style>
<g>
	<g>
		<path d="M34.6,427.7H26v-29.8h82.3c10.5,0,19.1-8.5,19.1-19.1c0-10.5-8.5-19.1-19.1-19.1H26v-8.6h82.3c15.3,0,27.6,12.4,27.6,27.6
			c0,12.7-8.5,23.3-20.1,26.6l20.1,22.3h-12.1l-19.2-21.3H34.6V427.7z"/>
		<path d="M158,351.2h103.6v8.6H158V351.2z M166.5,393.7v25.4h95v8.6H158v-42.5h103.6v8.6H166.5z"/>
		<path d="M285.5,427.7v-76.5h8.6v68h8.4c4,0,7.7-1.5,10.5-4l64-64h12.1l-70.3,70.3c-4.3,3.9-10,6.3-16.3,6.3H285.5z"/>
		<path d="M501.4,385.2v8.6c0,18.7-15.3,34-34,34h-35.6c-18.7,0-34-15.3-34-34v-8.6c0-18.7,15.3-34,34-34h35.6
			C486.1,351.2,501.4,366.5,501.4,385.2z M492.8,385.2c0-14-11.4-25.4-25.4-25.4h-35.6c-14,0-25.4,11.4-25.4,25.4v8.6
			c0,14,11.4,25.4,25.4,25.4h35.6c14,0,25.4-11.4,25.4-25.4V385.2z"/>
		<path d="M534.6,406.4c0,7,5.7,12.7,12.7,12.7c27.4,0,26.2,0,53.6,0v8.6h-53.6c-11.7,0-21.3-9.6-21.3-21.3v-55.3h8.6
			C534.6,358.3,534.6,399.3,534.6,406.4z"/>
		<path d="M623.5,351.2H727v8.6h-47.5v68H671v-68h-47.5V351.2z"/>
		<path d="M751.7,351.2h8.6v55.3c0,7,5.7,12.7,12.7,12.7h61c7,0,12.7-5.7,12.7-12.7v-55.3h8.6v55.3c0,11.7-9.6,21.3-21.3,21.3h-61
			c-11.7,0-21.3-9.6-21.3-21.3V351.2z"/>
		<path d="M875.8,351.2h103.6v8.6h-47.5v68h-8.6v-68h-47.5V351.2z"/>
		<path d="M1000.5,427.7v-76.5h8.6v76.5H1000.5z"/>
		<path d="M1133.8,385.2v8.6c0,18.7-15.3,34-34,34h-35.6c-18.7,0-34-15.3-34-34v-8.6c0-18.7,15.3-34,34-34h35.6
			C1118.5,351.2,1133.7,366.5,1133.8,385.2z M1125.2,385.2c0-14-11.4-25.4-25.4-25.4h-35.6c-14,0-25.4,11.4-25.4,25.4v8.6
			c0,14,11.4,25.4,25.4,25.4h35.6c14,0,25.4-11.4,25.4-25.4V385.2z"/>
		<path d="M1259,351.2v76.5h-8.6l-82.9-65.7v65.7h-8.6v-76.5h8.6l82.9,65.7v-65.7H1259z"/>
	</g>
	<g>
		<g>
			<path class="st0" d="M435.2,485.3h2.8v56.9h54.5v1.7h-57.3V485.3z"/>
			<path class="st0" d="M564.6,485.3h2.2l40.3,59h-2.9l-38.4-56.4l-38.4,56.4h-3L564.6,485.3z"/>
			<path class="st0" d="M640.4,485.3h36.4c10.3,0,18.4,1.8,23.3,5c3.7,2.4,5.7,5.7,5.7,9.7v0.2c0,7.2-7,12.3-17.1,13.8
				c12.2,1.2,21.8,6.7,21.8,14.6v0.2c0,9.6-11.7,15.1-31.7,15.1h-38.4V485.3z M678.8,513.4c13.2,0,24.2-4.2,24.2-13.1v-0.2
				c0-7.9-9.8-13.1-26.4-13.1h-33.5v26.4H678.8z M678.8,542.2c18.3,0,28.9-4.9,28.9-13.4v-0.2c0-8.9-12.2-13.5-26.8-13.5h-37.8v27.1
				H678.8z"/>
			<path class="st0" d="M744.2,535.3l2-1.3c9,5.8,20.4,9,33.3,9c16.6,0,27.3-5.9,27.3-13.8v-0.2c0-7.2-6.6-11-29-14.1
				c-21.9-2.9-30.3-7.2-30.3-15.4v-0.2c0-8.2,12.2-15,28.9-15c11.7,0,22.1,2.6,30.2,6.7l-1.8,1.5c-7.9-3.9-17.8-6.5-28.7-6.5
				c-15.6,0-25.9,6.4-25.9,13.2v0.2c0,7.1,6.8,10.9,28.7,13.8c23.1,3.1,30.7,7.7,30.7,15.6v0.2c0,8.7-11.5,15.6-30.3,15.6
				C765.7,544.7,753.7,541.3,744.2,535.3z"/>
		</g>
	</g>
</g>
<g>
	<g>
		<path class="st1" d="M34.6,122.1H26V92.3h82.3c10.5,0,19.1-8.5,19.1-19.1s-8.5-19.1-19.1-19.1H26v-8.6h82.3
			c15.3,0,27.6,12.4,27.6,27.6c0,12.7-8.5,23.3-20.1,26.6l20.1,22.3h-12.1l-19.2-21.3H34.6V122.1z"/>
		<path class="st1" d="M158,45.6h103.6v8.6H158V45.6z M166.5,88.1v25.4h95v8.6H158V79.6h103.6v8.6H166.5z"/>
		<path class="st1" d="M285.5,122.1V45.6h8.6v68h8.4c4,0,7.7-1.5,10.5-4l64-64h12.1l-70.3,70.3c-4.3,3.9-10,6.3-16.3,6.3H285.5z"/>
		<path class="st1" d="M501.4,79.6v8.6c0,18.7-15.3,34-34,34h-35.6c-18.7,0-34-15.3-34-34v-8.6c0-18.7,15.3-34,34-34h35.6
			C486.1,45.6,501.4,60.9,501.4,79.6z M492.8,79.6c0-14-11.4-25.4-25.4-25.4h-35.6c-14,0-25.4,11.4-25.4,25.4v8.6
			c0,14,11.4,25.4,25.4,25.4h35.6c14,0,25.4-11.4,25.4-25.4V79.6z"/>
		<path class="st1" d="M534.6,100.9c0,7,5.7,12.7,12.7,12.7c27.4,0,26.2,0,53.6,0v8.6h-53.6c-11.7,0-21.3-9.6-21.3-21.3V45.6h8.6
			C534.6,52.7,534.6,93.8,534.6,100.9z"/>
		<path class="st1" d="M623.5,45.6H727v8.6h-47.5v68H671v-68h-47.5V45.6z"/>
		<path class="st1" d="M751.7,45.6h8.6v55.3c0,7,5.7,12.7,12.7,12.7h61c7,0,12.7-5.7,12.7-12.7V45.6h8.6v55.3
			c0,11.7-9.6,21.3-21.3,21.3h-61c-11.7,0-21.3-9.6-21.3-21.3V45.6z"/>
		<path class="st1" d="M875.8,45.6h103.6v8.6h-47.5v68h-8.6v-68h-47.5V45.6z"/>
		<path class="st1" d="M1000.5,122.1V45.6h8.6v76.5H1000.5z"/>
		<path class="st1" d="M1133.8,79.6v8.6c0,18.7-15.3,34-34,34h-35.6c-18.7,0-34-15.3-34-34v-8.6c0-18.7,15.3-34,34-34h35.6
			C1118.5,45.6,1133.7,60.9,1133.8,79.6z M1125.2,79.6c0-14-11.4-25.4-25.4-25.4h-35.6c-14,0-25.4,11.4-25.4,25.4v8.6
			c0,14,11.4,25.4,25.4,25.4h35.6c14,0,25.4-11.4,25.4-25.4V79.6z"/>
		<path class="st1" d="M1259,45.6v76.5h-8.6l-82.9-65.7v65.7h-8.6V45.6h8.6l82.9,65.7V45.6H1259z"/>
	</g>
	<g>
		<g>
			<path class="st2" d="M435.2,179.7h2.8v56.9h54.5v1.7h-57.3V179.7z"/>
			<path class="st2" d="M564.6,179.7h2.2l40.3,59h-2.9l-38.4-56.4l-38.4,56.4h-3L564.6,179.7z"/>
			<path class="st2" d="M640.4,179.7h36.4c10.3,0,18.4,1.8,23.3,5c3.7,2.4,5.7,5.7,5.7,9.7v0.2c0,7.2-7,12.3-17.1,13.8
				c12.2,1.2,21.8,6.7,21.8,14.6v0.2c0,9.6-11.7,15.1-31.7,15.1h-38.4V179.7z M678.8,207.8c13.2,0,24.2-4.2,24.2-13.1v-0.2
				c0-7.9-9.8-13.1-26.4-13.1h-33.5v26.4H678.8z M678.8,236.6c18.3,0,28.9-4.9,28.9-13.4v-0.2c0-8.9-12.2-13.5-26.8-13.5h-37.8v27.1
				H678.8z"/>
			<path class="st2" d="M744.2,229.8l2-1.3c9,5.8,20.4,9,33.3,9c16.6,0,27.3-5.9,27.3-13.8v-0.2c0-7.2-6.6-11-29-14.1
				c-21.9-2.9-30.3-7.2-30.3-15.4v-0.2c0-8.2,12.2-15,28.9-15c11.7,0,22.1,2.6,30.2,6.7l-1.8,1.5c-7.9-3.9-17.8-6.5-28.7-6.5
				c-15.6,0-25.9,6.4-25.9,13.2v0.2c0,7.1,6.8,10.9,28.7,13.8c23.1,3.1,30.7,7.7,30.7,15.6v0.2c0,8.7-11.5,15.6-30.3,15.6
				C765.7,239.1,753.7,235.7,744.2,229.8z"/>
		</g>
	</g>
</g>
</svg>
